<svg id="Camada_1" data-name="Camada 1" xmlns="http://www.w3.org/2000/svg" viewBox="0 0 191.71 49.11"><defs><style>.cls-1{fill:none;stroke:#000;stroke-miterlimit:10;stroke-width:0.26px;}.cls-2{fill:#003361;}.cls-3{fill:#fff;}.cls-4{fill:#001e35;}.cls-5{fill:#0d68a0;}.cls-6{fill:#2b3e50;}</style></defs><title>logo</title><path class="cls-1" d="M37.5,21.8" transform="translate(-0.29)"/><path class="cls-2" d="M37.5,21.8l0,24.3a2.85,2.85,0,0,1-3.2,2.95H10.5S5.43,49.2,3,49a2.88,2.88,0,0,1-2.68-2.6V2.7A2.77,2.77,0,0,1,3.23,0H26.12l0,10.85Z" transform="translate(-0.29)"/><polygon class="cls-3" points="16.61 35.38 26.05 20.79 19.89 20.01 20.61 13.52 11.11 28.24 17.29 29 16.61 35.38"/><path class="cls-3" d="M10.41,28.18l10.82-17a1.06,1.06,0,0,0-.16-1.2c-.52-.48-.91.13-1.2.52s-10.18,16-10.18,16-.61.88,0,1.46A1.07,1.07,0,0,0,10.41,28.18Z" transform="translate(-0.29)"/><path class="cls-3" d="M27.38,20.94l-10.85,17a1.06,1.06,0,0,0,.16,1.2c.52.49.91-.13,1.2-.51s10.2-16,10.2-16,.62-.88,0-1.46A1,1,0,0,0,27.38,20.94Z" transform="translate(-0.29)"/><polygon class="cls-4" points="37.22 21.8 37.09 10.8 25.81 10.85 37.22 21.8"/><polygon class="cls-5" points="25.81 10.85 25.83 0 37.09 10.8 25.81 10.85"/><polygon class="cls-6" points="182.02 17.8 185.85 17.8 185.3 21.43 181.51 21.43 182.02 17.8"/><polygon class="cls-6" points="181.25 23.25 184.83 23.25 182.28 39.33 178.7 39.33 181.25 23.25"/><path class="cls-6" d="M190.05,35.41l1.65.06-.49,3.41-2.4-.05c-4.21-.13-3.19-4.7-3.19-4.7L188.43,17H192s-2.58,16-2.77,17.33A.78.78,0,0,0,190.05,35.41Z" transform="translate(-0.29)"/><path class="cls-6" d="M57.31,17H49.1l-3.57,22.3h3.91l1.32-8.62s4.3-.15,5-.15A7.83,7.83,0,0,0,62.45,23C62.71,16.78,57.31,17,57.31,17Zm1.16,6.68a3.59,3.59,0,0,1-3.31,3.43h-3.7l.94-6.22H56S58.71,20.63,58.47,23.71Z" transform="translate(-0.29)"/><path class="cls-6" d="M65,39.33H61.14l2.71-16.08h3.66l-.19.94a6.09,6.09,0,0,1,4.26-1.61c2.28.25,2.79,1.44,2.79,1.44L71.2,27a2.45,2.45,0,0,0-2.78-.75c-1.53.76-1.9,2.52-2.07,3.67S65,39.33,65,39.33Z" transform="translate(-0.29)"/><path class="cls-6" d="M95.23,27.35l2.89-2.76a5.4,5.4,0,0,0-4.84-2.15,7.81,7.81,0,0,0-6.34,4.31,14.63,14.63,0,0,0-1.36,6c.09,1.43,0,4.14,2.3,5.56a6.83,6.83,0,0,0,6.1.17,16.26,16.26,0,0,0,2.21-1.55L94.11,34.2a3.55,3.55,0,0,1-2.72,1.23c-1.6-.13-2.26-1.62-2.15-3.15a12.42,12.42,0,0,1,1.25-4.76,3,3,0,0,1,2.64-1.42A2.76,2.76,0,0,1,95.23,27.35Z" transform="translate(-0.29)"/><path class="cls-6" d="M100.42,32.07h9.18a13.09,13.09,0,0,0,.45-4.48c-.17-2.59-1.66-4.91-4.72-5.19a7.4,7.4,0,0,0-7.06,4.54,17.3,17.3,0,0,0-1.4,6.61c0,3.49,2,4.55,2.25,4.74a7.66,7.66,0,0,0,4.51.8,8.33,8.33,0,0,0,4.86-2.59l-1.83-2.38a4.83,4.83,0,0,1-3.43,1.57,2.67,2.67,0,0,1-2.84-2.58C100.41,32,100.42,32.07,100.42,32.07Zm4-6.17c2.59.19,2.08,3.31,2.08,3.31h-5.61C101,28.7,101.87,25.7,104.46,25.9Z" transform="translate(-0.29)"/><path class="cls-6" d="M112.79,31.56c.91.49,4.48.81,5.09,1a1.15,1.15,0,0,1,.65,1.13c0,.15,0,1.73-2.56,1.95a4.66,4.66,0,0,1-4-1.55l-2.78,2.65s1.12,2.21,4.72,2.35,5.1-.8,6.12-1.62a5.83,5.83,0,0,0,2.16-4.18c0-1.81-.4-3.59-2.46-4.06s-4.37-.19-4.75-1.18a1.85,1.85,0,0,1,2-2.26c2.39.05,3.06.58,3.51,1.05l2.68-2.55s-1.39-2-5.47-1.93a6,6,0,0,0-5.45,3,7.61,7.61,0,0,0-1,3.22A3.6,3.6,0,0,0,112.79,31.56Z" transform="translate(-0.29)"/><path class="cls-6" d="M125,31.56c.91.49,4.48.81,5.08,1a1.15,1.15,0,0,1,.66,1.13c0,.15,0,1.73-2.57,1.95a4.68,4.68,0,0,1-4-1.55l-2.77,2.65s1.11,2.21,4.72,2.35,5.1-.8,6.12-1.62a5.82,5.82,0,0,0,2.15-4.18c0-1.81-.4-3.59-2.46-4.06s-4.36-.19-4.75-1.18a1.85,1.85,0,0,1,2-2.26c2.39.05,3.06.58,3.5,1.05l2.68-2.55s-1.38-2-5.47-1.93a6,6,0,0,0-5.45,3,7.67,7.67,0,0,0-1,3.22A3.57,3.57,0,0,0,125,31.56Z" transform="translate(-0.29)"/><path class="cls-6" d="M160.62,17h-3.06l-11,22.3h4.08l2-4.67h7.19l.47,4.67h4.12Zm-6.25,14.52,3.72-8,1.26,8Z" transform="translate(-0.29)"/><polygon class="cls-6" points="159.99 14.69 164.03 9.77 160.08 9.77 157.55 14.69 159.99 14.69"/><path class="cls-6" d="M175.42,23.25l-.19,1.2c-.23-.74-2.84-3.27-6.42-1s-3.57,10.31-3.38,11.73,1.1,2.57,3.44,3,4.3-1.53,4.3-1.53c0,1.86-.9,4.43-2.94,4.91a4.05,4.05,0,0,1-3.57-1.17L164,43c.6.78,1.89,1.79,4.6,2.07a6.36,6.36,0,0,0,5.44-1.92c2-1.92,2.63-5.51,2.63-5.51L179,23.25ZM174.1,30.8a8.32,8.32,0,0,1-1.1,2.93,2.69,2.69,0,0,1-2.41.81A1.83,1.83,0,0,1,169.15,33c0-.75.25-6.68,2.65-6.85s2.35.85,2.49,1.74A13.36,13.36,0,0,1,174.1,30.8Z" transform="translate(-0.29)"/><path class="cls-6" d="M143.34,22.37a7.54,7.54,0,0,0-7.17,6c-1.53,6.08-.8,9.57,2.92,10.6s8-1.94,8.87-7.14S148.44,22.43,143.34,22.37Zm1,9.32c-.23.81-.55,3.68-3.29,3.75S139.26,31,139.26,31s.41-2,.64-2.65a3.08,3.08,0,0,1,2.87-2.29c1.85,0,1.91,2.1,1.91,2.1A30.75,30.75,0,0,1,144.3,31.69Z" transform="translate(-0.29)"/><path class="cls-6" d="M79.82,22.37a7.54,7.54,0,0,0-7.17,6c-1.53,6.08-.8,9.57,2.92,10.6s8.05-1.94,8.87-7.14S84.92,22.43,79.82,22.37Zm1,9.32c-.23.81-.54,3.68-3.29,3.75S75.74,31,75.74,31s.41-2,.64-2.65a3.08,3.08,0,0,1,2.87-2.29c1.85,0,1.91,2.1,1.91,2.1A30.75,30.75,0,0,1,80.78,31.69Z" transform="translate(-0.29)"/></svg>